<mxfile host="app.diagrams.net" modified="2024-02-12T14:28:14.443Z" agent="Mozilla/5.0 (Windows NT 10.0; Win64; x64) AppleWebKit/537.36 (KHTML, like Gecko) Chrome/121.0.0.0 Safari/537.36" version="23.1.2" etag="JpGJ01EUm614VWU-csG6" type="github">
  <diagram name="PÃ¡gina-1" id="fT8yXE7hKiB9G-dZ64lr">
    <mxGraphModel>
      <root>
        <mxCell id="0" />
        <mxCell id="1" parent="0" />
      </root>
    </mxGraphModel>
  </diagram>
</mxfile>
